# xmcd
#
# Track frame offsets:
# 150
# 19817
# 33557
# 47977
# 66196
# 81813
# 96969
# 117784
# 138325
# 150881
# 181995
#
# Disc length: 2626 seconds
#
#
# Revision: 0
# Processed by: cddbd v1.5.1PL0 Copyright (c) Steve Scherf et al.
# Submitted via: FreeRIP 2.942 
#
DISCID=890a400b
DTITLE=Mark Cosgrove - Sweet Reason
DYEAR=2005
DGENRE=Bluegrass
TTITLE0=Good Morning Issac
TTITLE1=The Snowflake Reel
TTITLE2=Dark Wind of Missouri
TTITLE3=Washington County
TTITLE4=Fiddler's Dram
TTITLE5=Red Clay Halo
TTITLE6=New Camptown Races
TTITLE7=Paint the Town Beige
TTITLE8=John Henry
TTITLE9=Good Medicine
TTITLE10=Billy In the Low Ground
EXTD=
EXTT0=
EXTT1=
EXTT2=
EXTT3=
EXTT4=
EXTT5=
EXTT6=
EXTT7=
EXTT8=
EXTT9=
EXTT10=
PLAYORDER=
